<svg width="14" height="14" viewBox="0 0 14 14" fill="none" xmlns="http://www.w3.org/2000/svg">
<g clip-path="url(#clip0_114_145)">
<path fill-rule="evenodd" clip-rule="evenodd" d="M1.6205 0.0512695H10.9319C11.789 0.0512695 12.4838 0.746078 12.4838 1.60317V1.68034L6.27619 4.78414L0.0686035 1.68035V1.60317C0.0686035 0.746078 0.763412 0.0512695 1.6205 0.0512695ZM0.0686035 3.07789V7.81076C0.0686035 8.66785 0.763412 9.36266 1.6205 9.36266H6.54749C6.80446 9.07078 7.16908 8.8528 7.64137 8.77063C8.15682 8.68096 8.56728 8.28972 8.68185 7.77976L8.70259 7.68508C9.13402 5.71422 11.9403 5.70195 12.389 7.66897L12.3981 7.70928C12.4044 7.73695 12.4092 7.75832 12.4142 7.77934C12.4298 7.84583 12.4504 7.91029 12.4755 7.9723C12.481 7.9192 12.4838 7.86531 12.4838 7.81076V3.07788L6.55569 6.04193C6.37974 6.12991 6.17263 6.12991 5.99668 6.04193L0.0686035 3.07789ZM9.76466 7.91757C9.94774 7.08124 11.1386 7.07603 11.329 7.91073L11.3379 7.95019C11.3439 7.97709 11.3497 8.00194 11.3558 8.02784C11.5751 8.96193 12.331 9.67568 13.2773 9.8403C14.1496 9.99206 14.1496 11.2443 13.2773 11.3961C12.326 11.5616 11.567 12.282 11.3523 13.2235L11.329 13.3256C11.1386 14.1603 9.94774 14.1551 9.76466 13.3188L9.74548 13.2311C9.53864 12.2862 8.78069 11.5604 7.82773 11.3946C6.95704 11.2431 6.95704 9.99323 7.82773 9.84175C8.77737 9.67654 9.53336 8.95515 9.7433 8.01508L9.75746 7.95059L9.76466 7.91757Z" fill="white"/>
</g>
<defs>
<clipPath id="clip0_114_145">
<rect width="14" height="14" fill="white"/>
</clipPath>
</defs>
</svg>
