<svg width="40" height="41" viewBox="0 0 40 41" fill="none" xmlns="http://www.w3.org/2000/svg">
<path d="M29.1667 10.957H29.1834M11.6667 3.45703H28.3334C32.9357 3.45703 36.6667 7.18799 36.6667 11.7904V28.457C36.6667 33.0594 32.9357 36.7904 28.3334 36.7904H11.6667C7.06433 36.7904 3.33337 33.0594 3.33337 28.457V11.7904C3.33337 7.18799 7.06433 3.45703 11.6667 3.45703ZM26.6667 19.0737C26.8724 20.4608 26.6355 21.8774 25.9896 23.1221C25.3438 24.3667 24.3219 25.3761 23.0694 26.0065C21.8169 26.6369 20.3975 26.8564 19.013 26.6336C17.6286 26.4108 16.3496 25.7572 15.3581 24.7656C14.3666 23.7741 13.7129 22.4952 13.4902 21.1107C13.2674 19.7263 13.4868 18.3069 14.1173 17.0543C14.7477 15.8018 15.757 14.7799 17.0017 14.1341C18.2463 13.4883 19.663 13.2513 21.05 13.457C22.4649 13.6668 23.7748 14.3261 24.7862 15.3375C25.7976 16.3489 26.4569 17.6588 26.6667 19.0737Z" stroke="white" stroke-width="2" stroke-linecap="round" stroke-linejoin="round"/>
</svg>
