<svg width="41" height="41" viewBox="0 -1 41 41" fill="none" xmlns="http://www.w3.org/2000/svg">
<path d="M27.4089 13.957C30.0611 13.957 32.6046 15.0106 34.48 16.886C36.3553 18.7613 37.4089 21.3049 37.4089 23.957V35.6237H30.7422V23.957C30.7422 23.073 30.391 22.2251 29.7659 21.6C29.1408 20.9749 28.2929 20.6237 27.4089 20.6237C26.5248 20.6237 25.677 20.9749 25.0519 21.6C24.4268 22.2251 24.0756 23.073 24.0756 23.957V35.6237H17.4089V23.957C17.4089 21.3049 18.4625 18.7613 20.3378 16.886C22.2132 15.0106 24.7567 13.957 27.4089 13.957Z" stroke="white" stroke-width="2" stroke-linecap="round" stroke-linejoin="round"/>
<path d="M10.7422 15.6237H4.07556V35.6237H10.7422V15.6237Z" stroke="white" stroke-width="2" stroke-linecap="round" stroke-linejoin="round"/>
<path d="M7.40889 10.6237C9.24984 10.6237 10.7422 9.13131 10.7422 7.29036C10.7422 5.44942 9.24984 3.95703 7.40889 3.95703C5.56795 3.95703 4.07556 5.44942 4.07556 7.29036C4.07556 9.13131 5.56795 10.6237 7.40889 10.6237Z" stroke="white" stroke-width="2" stroke-linecap="round" stroke-linejoin="round"/>
</svg>
