<svg width="41" height="41" viewBox="0 0 41 41" fill="none" xmlns="http://www.w3.org/2000/svg">
<g clip-path="url(#clip0_114_154)">
<path d="M38.3089 10.9473C38.1109 10.1563 37.7077 9.43156 37.14 8.84628C36.5723 8.26101 35.8602 7.83591 35.0756 7.61394C32.2089 6.91394 20.7422 6.91394 20.7422 6.91394C20.7422 6.91394 9.27558 6.91394 6.40891 7.68061C5.62432 7.90258 4.91221 8.32767 4.34449 8.91295C3.77677 9.49823 3.37356 10.223 3.17558 11.0139C2.65094 13.9232 2.3943 16.8745 2.40891 19.8306C2.39021 22.809 2.64686 25.7828 3.17558 28.7139C3.39384 29.4804 3.80609 30.1775 4.37249 30.7381C4.93888 31.2986 5.64028 31.7036 6.40891 31.9139C9.27558 32.6806 20.7422 32.6806 20.7422 32.6806C20.7422 32.6806 32.2089 32.6806 35.0756 31.9139C35.8602 31.692 36.5723 31.2669 37.14 30.6816C37.7077 30.0963 38.1109 29.3716 38.3089 28.5806C38.8295 25.6933 39.0861 22.7645 39.0756 19.8306C39.0943 16.8522 38.8376 13.8784 38.3089 10.9473Z" stroke="white" stroke-width="2" stroke-linecap="round" stroke-linejoin="round"/>
<path d="M16.9922 25.2806L26.5756 19.8306L16.9922 14.3806V25.2806Z" stroke="white" stroke-width="2" stroke-linecap="round" stroke-linejoin="round"/>
</g>
<defs>
<clipPath id="clip0_114_154">
<rect width="40" height="40" fill="white" transform="translate(0.742188 0.247314)"/>
</clipPath>
</defs>
</svg>
